<?xml version="1.0" encoding="utf-8" standalone="no"?>
<!DOCTYPE svg PUBLIC "-//W3C//DTD SVG 1.1//EN"
  "http://www.w3.org/Graphics/SVG/1.1/DTD/svg11.dtd">
<svg xmlns:xlink="http://www.w3.org/1999/xlink" width="572.4pt" height="312.237813pt" viewBox="0 0 572.4 312.237813" xmlns="http://www.w3.org/2000/svg" version="1.1">
 <metadata>
  <rdf:RDF xmlns:dc="http://purl.org/dc/elements/1.1/" xmlns:cc="http://creativecommons.org/ns#" xmlns:rdf="http://www.w3.org/1999/02/22-rdf-syntax-ns#">
   <cc:Work>
    <dc:type rdf:resource="http://purl.org/dc/dcmitype/StillImage"/>
    <dc:date>2026-05-12T03:19:50.092165</dc:date>
    <dc:format>image/svg+xml</dc:format>
    <dc:creator>
     <cc:Agent>
      <dc:title>Matplotlib v3.10.9, https://matplotlib.org/</dc:title>
     </cc:Agent>
    </dc:creator>
   </cc:Work>
  </rdf:RDF>
 </metadata>
 <defs>
  <style type="text/css">*{stroke-linejoin: round; stroke-linecap: butt}</style>
 </defs>
 <g id="figure_1">
  <g id="patch_1">
   <path d="M 0 312.237813 
L 572.4 312.237813 
L 572.4 0 
L 0 0 
z
" style="fill: #ffffff"/>
  </g>
  <g id="axes_1">
   <g id="patch_2">
    <path d="M 30.45 261.725313 
L 95.55 261.725313 
Q 97.875 261.725313 97.875 258.837813 
L 97.875 206.862813 
Q 97.875 203.975313 95.55 203.975313 
L 30.45 203.975313 
Q 28.125 203.975313 28.125 206.862813 
L 28.125 258.837813 
Q 28.125 261.725313 30.45 261.725313 
z
" clip-path="url(#pda3fac71d1)" style="fill: #0e7490; opacity: 0.18; stroke: #0e7490; stroke-width: 2; stroke-linejoin: miter"/>
   </g>
   <g id="patch_3">
    <path d="M 118.8 245.555313 
C 121.513028 245.555313 124.115302 244.216634 126.033702 241.834104 
C 127.952103 239.451575 129.03 236.219718 129.03 232.850313 
C 129.03 229.480907 127.952103 226.24905 126.033702 223.866521 
C 124.115302 221.483991 121.513028 220.145312 118.8 220.145312 
C 116.086972 220.145312 113.484698 221.483991 111.566298 223.866521 
C 109.647897 226.24905 108.57 229.480907 108.57 232.850313 
C 108.57 236.219718 109.647897 239.451575 111.566298 241.834104 
C 113.484698 244.216634 116.086972 245.555313 118.8 245.555313 
z
" clip-path="url(#pda3fac71d1)" style="fill: #ffffff; stroke: #0e7490; stroke-width: 1.5; stroke-linejoin: miter"/>
   </g>
   <g id="patch_4">
    <path d="M 151.35 245.555313 
C 154.063028 245.555313 156.665302 244.216634 158.583702 241.834104 
C 160.502103 239.451575 161.58 236.219718 161.58 232.850313 
C 161.58 229.480907 160.502103 226.24905 158.583702 223.866521 
C 156.665302 221.483991 154.063028 220.145312 151.35 220.145312 
C 148.636972 220.145312 146.034698 221.483991 144.116298 223.866521 
C 142.197897 226.24905 141.12 229.480907 141.12 232.850313 
C 141.12 236.219718 142.197897 239.451575 144.116298 241.834104 
C 146.034698 244.216634 148.636972 245.555313 151.35 245.555313 
z
" clip-path="url(#pda3fac71d1)" style="fill: #ffffff; stroke: #0e7490; stroke-width: 1.5; stroke-linejoin: miter"/>
   </g>
   <g id="patch_5">
    <path d="M 183.9 245.555313 
C 186.613028 245.555313 189.215302 244.216634 191.133702 241.834104 
C 193.052103 239.451575 194.13 236.219718 194.13 232.850313 
C 194.13 229.480907 193.052103 226.24905 191.133702 223.866521 
C 189.215302 221.483991 186.613028 220.145312 183.9 220.145312 
C 181.186972 220.145312 178.584698 221.483991 176.666298 223.866521 
C 174.747897 226.24905 173.67 229.480907 173.67 232.850313 
C 173.67 236.219718 174.747897 239.451575 176.666298 241.834104 
C 178.584698 244.216634 181.186972 245.555313 183.9 245.555313 
z
" clip-path="url(#pda3fac71d1)" style="fill: #ffffff; stroke: #0e7490; stroke-width: 1.5; stroke-linejoin: miter"/>
   </g>
   <g id="patch_6">
    <path d="M 216.45 245.555313 
C 219.163028 245.555313 221.765302 244.216634 223.683702 241.834104 
C 225.602103 239.451575 226.68 236.219718 226.68 232.850313 
C 226.68 229.480907 225.602103 226.24905 223.683702 223.866521 
C 221.765302 221.483991 219.163028 220.145312 216.45 220.145312 
C 213.736972 220.145312 211.134698 221.483991 209.216298 223.866521 
C 207.297897 226.24905 206.22 229.480907 206.22 232.850313 
C 206.22 236.219718 207.297897 239.451575 209.216298 241.834104 
C 211.134698 244.216634 213.736972 245.555313 216.45 245.555313 
z
" clip-path="url(#pda3fac71d1)" style="fill: #ffffff; stroke: #0e7490; stroke-width: 1.5; stroke-linejoin: miter"/>
   </g>
   <g id="patch_7">
    <path d="M 249 245.555313 
C 251.713028 245.555313 254.315302 244.216634 256.233702 241.834104 
C 258.152103 239.451575 259.23 236.219718 259.23 232.850313 
C 259.23 229.480907 258.152103 226.24905 256.233702 223.866521 
C 254.315302 221.483991 251.713028 220.145312 249 220.145312 
C 246.286972 220.145312 243.684698 221.483991 241.766298 223.866521 
C 239.847897 226.24905 238.77 229.480907 238.77 232.850313 
C 238.77 236.219718 239.847897 239.451575 241.766298 241.834104 
C 243.684698 244.216634 246.286972 245.555313 249 245.555313 
z
" clip-path="url(#pda3fac71d1)" style="fill: #ffffff; stroke: #0e7490; stroke-width: 1.5; stroke-linejoin: miter"/>
   </g>
   <g id="patch_8">
    <path d="M 30.45 186.650313 
L 95.55 186.650313 
Q 97.875 186.650313 97.875 183.762813 
L 97.875 131.787813 
Q 97.875 128.900313 95.55 128.900313 
L 30.45 128.900313 
Q 28.125 128.900313 28.125 131.787813 
L 28.125 183.762813 
Q 28.125 186.650313 30.45 186.650313 
z
" clip-path="url(#pda3fac71d1)" style="fill: #1e3a8a; opacity: 0.18; stroke: #1e3a8a; stroke-width: 2; stroke-linejoin: miter"/>
   </g>
   <g id="patch_9">
    <path d="M 118.8 170.480312 
C 121.513028 170.480312 124.115302 169.141634 126.033702 166.759104 
C 127.952103 164.376575 129.03 161.144718 129.03 157.775312 
C 129.03 154.405907 127.952103 151.17405 126.033702 148.791521 
C 124.115302 146.408991 121.513028 145.070312 118.8 145.070312 
C 116.086972 145.070312 113.484698 146.408991 111.566298 148.791521 
C 109.647897 151.17405 108.57 154.405907 108.57 157.775312 
C 108.57 161.144718 109.647897 164.376575 111.566298 166.759104 
C 113.484698 169.141634 116.086972 170.480312 118.8 170.480312 
z
" clip-path="url(#pda3fac71d1)" style="fill: #ffffff; stroke: #1e3a8a; stroke-width: 1.5; stroke-linejoin: miter"/>
   </g>
   <g id="patch_10">
    <path d="M 151.35 170.480312 
C 154.063028 170.480312 156.665302 169.141634 158.583702 166.759104 
C 160.502103 164.376575 161.58 161.144718 161.58 157.775312 
C 161.58 154.405907 160.502103 151.17405 158.583702 148.791521 
C 156.665302 146.408991 154.063028 145.070312 151.35 145.070312 
C 148.636972 145.070312 146.034698 146.408991 144.116298 148.791521 
C 142.197897 151.17405 141.12 154.405907 141.12 157.775312 
C 141.12 161.144718 142.197897 164.376575 144.116298 166.759104 
C 146.034698 169.141634 148.636972 170.480312 151.35 170.480312 
z
" clip-path="url(#pda3fac71d1)" style="fill: #ffffff; stroke: #1e3a8a; stroke-width: 1.5; stroke-linejoin: miter"/>
   </g>
   <g id="patch_11">
    <path d="M 183.9 170.480312 
C 186.613028 170.480312 189.215302 169.141634 191.133702 166.759104 
C 193.052103 164.376575 194.13 161.144718 194.13 157.775312 
C 194.13 154.405907 193.052103 151.17405 191.133702 148.791521 
C 189.215302 146.408991 186.613028 145.070312 183.9 145.070312 
C 181.186972 145.070312 178.584698 146.408991 176.666298 148.791521 
C 174.747897 151.17405 173.67 154.405907 173.67 157.775312 
C 173.67 161.144718 174.747897 164.376575 176.666298 166.759104 
C 178.584698 169.141634 181.186972 170.480312 183.9 170.480312 
z
" clip-path="url(#pda3fac71d1)" style="fill: #ffffff; stroke: #1e3a8a; stroke-width: 1.5; stroke-linejoin: miter"/>
   </g>
   <g id="patch_12">
    <path d="M 216.45 170.480312 
C 219.163028 170.480312 221.765302 169.141634 223.683702 166.759104 
C 225.602103 164.376575 226.68 161.144718 226.68 157.775312 
C 226.68 154.405907 225.602103 151.17405 223.683702 148.791521 
C 221.765302 146.408991 219.163028 145.070312 216.45 145.070312 
C 213.736972 145.070312 211.134698 146.408991 209.216298 148.791521 
C 207.297897 151.17405 206.22 154.405907 206.22 157.775312 
C 206.22 161.144718 207.297897 164.376575 209.216298 166.759104 
C 211.134698 169.141634 213.736972 170.480312 216.45 170.480312 
z
" clip-path="url(#pda3fac71d1)" style="fill: #ffffff; stroke: #1e3a8a; stroke-width: 1.5; stroke-linejoin: miter"/>
   </g>
   <g id="patch_13">
    <path d="M 249 170.480312 
C 251.713028 170.480312 254.315302 169.141634 256.233702 166.759104 
C 258.152103 164.376575 259.23 161.144718 259.23 157.775312 
C 259.23 154.405907 258.152103 151.17405 256.233702 148.791521 
C 254.315302 146.408991 251.713028 145.070312 249 145.070312 
C 246.286972 145.070312 243.684698 146.408991 241.766298 148.791521 
C 239.847897 151.17405 238.77 154.405907 238.77 157.775312 
C 238.77 161.144718 239.847897 164.376575 241.766298 166.759104 
C 243.684698 169.141634 246.286972 170.480312 249 170.480312 
z
" clip-path="url(#pda3fac71d1)" style="fill: #ffffff; stroke: #1e3a8a; stroke-width: 1.5; stroke-linejoin: miter"/>
   </g>
   <g id="patch_14">
    <path d="M 281.55 170.480312 
C 284.263028 170.480312 286.865302 169.141634 288.783702 166.759104 
C 290.702103 164.376575 291.78 161.144718 291.78 157.775312 
C 291.78 154.405907 290.702103 151.17405 288.783702 148.791521 
C 286.865302 146.408991 284.263028 145.070312 281.55 145.070312 
C 278.836972 145.070312 276.234698 146.408991 274.316298 148.791521 
C 272.397897 151.17405 271.32 154.405907 271.32 157.775312 
C 271.32 161.144718 272.397897 164.376575 274.316298 166.759104 
C 276.234698 169.141634 278.836972 170.480312 281.55 170.480312 
z
" clip-path="url(#pda3fac71d1)" style="fill: #ffffff; stroke: #1e3a8a; stroke-width: 1.5; stroke-linejoin: miter"/>
   </g>
   <g id="patch_15">
    <path d="M 314.1 170.480312 
C 316.813028 170.480312 319.415302 169.141634 321.333702 166.759104 
C 323.252103 164.376575 324.33 161.144718 324.33 157.775312 
C 324.33 154.405907 323.252103 151.17405 321.333702 148.791521 
C 319.415302 146.408991 316.813028 145.070312 314.1 145.070312 
C 311.386972 145.070312 308.784698 146.408991 306.866298 148.791521 
C 304.947897 151.17405 303.87 154.405907 303.87 157.775312 
C 303.87 161.144718 304.947897 164.376575 306.866298 166.759104 
C 308.784698 169.141634 311.386972 170.480312 314.1 170.480312 
z
" clip-path="url(#pda3fac71d1)" style="fill: #ffffff; stroke: #1e3a8a; stroke-width: 1.5; stroke-linejoin: miter"/>
   </g>
   <g id="patch_16">
    <path d="M 30.45 111.575312 
L 95.55 111.575312 
Q 97.875 111.575312 97.875 108.687813 
L 97.875 56.712812 
Q 97.875 53.825312 95.55 53.825312 
L 30.45 53.825312 
Q 28.125 53.825312 28.125 56.712812 
L 28.125 108.687813 
Q 28.125 111.575312 30.45 111.575312 
z
" clip-path="url(#pda3fac71d1)" style="fill: #6b21a8; opacity: 0.18; stroke: #6b21a8; stroke-width: 2; stroke-linejoin: miter"/>
   </g>
   <g id="patch_17">
    <path d="M 118.8 95.405312 
C 121.513028 95.405312 124.115302 94.066634 126.033702 91.684104 
C 127.952103 89.301575 129.03 86.069718 129.03 82.700312 
C 129.03 79.330907 127.952103 76.09905 126.033702 73.716521 
C 124.115302 71.333991 121.513028 69.995312 118.8 69.995312 
C 116.086972 69.995312 113.484698 71.333991 111.566298 73.716521 
C 109.647897 76.09905 108.57 79.330907 108.57 82.700312 
C 108.57 86.069718 109.647897 89.301575 111.566298 91.684104 
C 113.484698 94.066634 116.086972 95.405312 118.8 95.405312 
z
" clip-path="url(#pda3fac71d1)" style="fill: #ffffff; stroke: #6b21a8; stroke-width: 1.5; stroke-linejoin: miter"/>
   </g>
   <g id="patch_18">
    <path d="M 151.35 95.405312 
C 154.063028 95.405312 156.665302 94.066634 158.583702 91.684104 
C 160.502103 89.301575 161.58 86.069718 161.58 82.700312 
C 161.58 79.330907 160.502103 76.09905 158.583702 73.716521 
C 156.665302 71.333991 154.063028 69.995312 151.35 69.995312 
C 148.636972 69.995312 146.034698 71.333991 144.116298 73.716521 
C 142.197897 76.09905 141.12 79.330907 141.12 82.700312 
C 141.12 86.069718 142.197897 89.301575 144.116298 91.684104 
C 146.034698 94.066634 148.636972 95.405312 151.35 95.405312 
z
" clip-path="url(#pda3fac71d1)" style="fill: #ffffff; stroke: #6b21a8; stroke-width: 1.5; stroke-linejoin: miter"/>
   </g>
   <g id="patch_19">
    <path d="M 183.9 95.405312 
C 186.613028 95.405312 189.215302 94.066634 191.133702 91.684104 
C 193.052103 89.301575 194.13 86.069718 194.13 82.700312 
C 194.13 79.330907 193.052103 76.09905 191.133702 73.716521 
C 189.215302 71.333991 186.613028 69.995312 183.9 69.995312 
C 181.186972 69.995312 178.584698 71.333991 176.666298 73.716521 
C 174.747897 76.09905 173.67 79.330907 173.67 82.700312 
C 173.67 86.069718 174.747897 89.301575 176.666298 91.684104 
C 178.584698 94.066634 181.186972 95.405312 183.9 95.405312 
z
" clip-path="url(#pda3fac71d1)" style="fill: #ffffff; stroke: #6b21a8; stroke-width: 1.5; stroke-linejoin: miter"/>
   </g>
   <g id="patch_20">
    <path d="M 216.45 95.405312 
C 219.163028 95.405312 221.765302 94.066634 223.683702 91.684104 
C 225.602103 89.301575 226.68 86.069718 226.68 82.700312 
C 226.68 79.330907 225.602103 76.09905 223.683702 73.716521 
C 221.765302 71.333991 219.163028 69.995312 216.45 69.995312 
C 213.736972 69.995312 211.134698 71.333991 209.216298 73.716521 
C 207.297897 76.09905 206.22 79.330907 206.22 82.700312 
C 206.22 86.069718 207.297897 89.301575 209.216298 91.684104 
C 211.134698 94.066634 213.736972 95.405312 216.45 95.405312 
z
" clip-path="url(#pda3fac71d1)" style="fill: #ffffff; stroke: #6b21a8; stroke-width: 1.5; stroke-linejoin: miter"/>
   </g>
   <g id="patch_21">
    <path d="M 249 95.405312 
C 251.713028 95.405312 254.315302 94.066634 256.233702 91.684104 
C 258.152103 89.301575 259.23 86.069718 259.23 82.700312 
C 259.23 79.330907 258.152103 76.09905 256.233702 73.716521 
C 254.315302 71.333991 251.713028 69.995312 249 69.995312 
C 246.286972 69.995312 243.684698 71.333991 241.766298 73.716521 
C 239.847897 76.09905 238.77 79.330907 238.77 82.700312 
C 238.77 86.069718 239.847897 89.301575 241.766298 91.684104 
C 243.684698 94.066634 246.286972 95.405312 249 95.405312 
z
" clip-path="url(#pda3fac71d1)" style="fill: #ffffff; stroke: #6b21a8; stroke-width: 1.5; stroke-linejoin: miter"/>
   </g>
   <g id="patch_22">
    <path d="M 281.55 95.405312 
C 284.263028 95.405312 286.865302 94.066634 288.783702 91.684104 
C 290.702103 89.301575 291.78 86.069718 291.78 82.700312 
C 291.78 79.330907 290.702103 76.09905 288.783702 73.716521 
C 286.865302 71.333991 284.263028 69.995312 281.55 69.995312 
C 278.836972 69.995312 276.234698 71.333991 274.316298 73.716521 
C 272.397897 76.09905 271.32 79.330907 271.32 82.700312 
C 271.32 86.069718 272.397897 89.301575 274.316298 91.684104 
C 276.234698 94.066634 278.836972 95.405312 281.55 95.405312 
z
" clip-path="url(#pda3fac71d1)" style="fill: #ffffff; stroke: #6b21a8; stroke-width: 1.5; stroke-linejoin: miter"/>
   </g>
   <g id="patch_23">
    <path d="M 314.1 95.405312 
C 316.813028 95.405312 319.415302 94.066634 321.333702 91.684104 
C 323.252103 89.301575 324.33 86.069718 324.33 82.700312 
C 324.33 79.330907 323.252103 76.09905 321.333702 73.716521 
C 319.415302 71.333991 316.813028 69.995312 314.1 69.995312 
C 311.386972 69.995312 308.784698 71.333991 306.866298 73.716521 
C 304.947897 76.09905 303.87 79.330907 303.87 82.700312 
C 303.87 86.069718 304.947897 89.301575 306.866298 91.684104 
C 308.784698 94.066634 311.386972 95.405312 314.1 95.405312 
z
" clip-path="url(#pda3fac71d1)" style="fill: #ffffff; stroke: #6b21a8; stroke-width: 1.5; stroke-linejoin: miter"/>
   </g>
   <g id="patch_24">
    <path d="M 346.65 95.405312 
C 349.363028 95.405312 351.965302 94.066634 353.883702 91.684104 
C 355.802103 89.301575 356.88 86.069718 356.88 82.700312 
C 356.88 79.330907 355.802103 76.09905 353.883702 73.716521 
C 351.965302 71.333991 349.363028 69.995312 346.65 69.995312 
C 343.936972 69.995312 341.334698 71.333991 339.416298 73.716521 
C 337.497897 76.09905 336.42 79.330907 336.42 82.700312 
C 336.42 86.069718 337.497897 89.301575 339.416298 91.684104 
C 341.334698 94.066634 343.936972 95.405312 346.65 95.405312 
z
" clip-path="url(#pda3fac71d1)" style="fill: #ffffff; stroke: #6b21a8; stroke-width: 1.5; stroke-linejoin: miter"/>
   </g>
   <g id="patch_25">
    <path d="M 379.2 95.405312 
C 381.913028 95.405312 384.515302 94.066634 386.433702 91.684104 
C 388.352103 89.301575 389.43 86.069718 389.43 82.700312 
C 389.43 79.330907 388.352103 76.09905 386.433702 73.716521 
C 384.515302 71.333991 381.913028 69.995312 379.2 69.995312 
C 376.486972 69.995312 373.884698 71.333991 371.966298 73.716521 
C 370.047897 76.09905 368.97 79.330907 368.97 82.700312 
C 368.97 86.069718 370.047897 89.301575 371.966298 91.684104 
C 373.884698 94.066634 376.486972 95.405312 379.2 95.405312 
z
" clip-path="url(#pda3fac71d1)" style="fill: #ffffff; stroke: #6b21a8; stroke-width: 1.5; stroke-linejoin: miter"/>
   </g>
   <g id="patch_26">
    <path d="M 21.15 287.712813 
L 551.25 287.712813 
L 551.25 273.275313 
L 21.15 273.275313 
z
" clip-path="url(#pda3fac71d1)" style="fill: #d97706; opacity: 0.25; stroke: #d97706; stroke-linejoin: miter"/>
   </g>
   <g id="text_1">
    <!-- Λ₅ -->
    <g style="fill: #0e7490" transform="translate(49.669375 238.920938) scale(0.22 -0.22)">
     <defs>
      <path id="DejaVuSans-Bold-39b" d="M 3713 0 
L 2478 3572 
L 1241 0 
L 31 0 
L 1759 4666 
L 3194 4666 
L 4922 0 
L 3713 0 
z
" transform="scale(0.015625)"/>
      <path id="DejaVuSans-Bold-2085" d="M 416 2585 
L 2253 2585 
L 2253 2091 
L 1006 2091 
L 1006 1691 
Q 1091 1710 1175 1722 
Q 1259 1735 1353 1735 
Q 1875 1735 2169 1494 
Q 2459 1257 2459 829 
Q 2459 401 2144 166 
Q 1825 -71 1259 -71 
Q 1016 -71 778 -31 
Q 541 13 303 101 
L 303 632 
Q 538 507 747 447 
Q 956 385 1144 385 
Q 1406 385 1566 507 
Q 1722 626 1722 829 
Q 1722 1035 1566 1154 
Q 1413 1272 1144 1272 
Q 984 1272 803 1235 
Q 625 1197 416 1119 
L 416 2585 
z
" transform="scale(0.015625)"/>
     </defs>
     <use xlink:href="#DejaVuSans-Bold-39b"/>
     <use xlink:href="#DejaVuSans-Bold-2085" transform="translate(77.392578 0)"/>
    </g>
   </g>
   <g id="text_2">
    <!-- C -->
    <g style="fill: #0e7490" transform="translate(114.763516 235.885625) scale(0.11 -0.11)">
     <defs>
      <path id="DejaVuSans-Bold-43" d="M 4288 256 
Q 3956 84 3597 -3 
Q 3238 -91 2847 -91 
Q 1681 -91 1000 561 
Q 319 1213 319 2328 
Q 319 3447 1000 4098 
Q 1681 4750 2847 4750 
Q 3238 4750 3597 4662 
Q 3956 4575 4288 4403 
L 4288 3438 
Q 3953 3666 3628 3772 
Q 3303 3878 2944 3878 
Q 2300 3878 1931 3465 
Q 1563 3053 1563 2328 
Q 1563 1606 1931 1193 
Q 2300 781 2944 781 
Q 3303 781 3628 887 
Q 3953 994 4288 1222 
L 4288 256 
z
" transform="scale(0.015625)"/>
     </defs>
     <use xlink:href="#DejaVuSans-Bold-43"/>
    </g>
   </g>
   <g id="text_3">
    <!-- H -->
    <g style="fill: #0e7490" transform="translate(146.747187 235.885625) scale(0.11 -0.11)">
     <defs>
      <path id="DejaVuSans-Bold-48" d="M 588 4666 
L 1791 4666 
L 1791 2888 
L 3566 2888 
L 3566 4666 
L 4769 4666 
L 4769 0 
L 3566 0 
L 3566 1978 
L 1791 1978 
L 1791 0 
L 588 0 
L 588 4666 
z
" transform="scale(0.015625)"/>
     </defs>
     <use xlink:href="#DejaVuSans-Bold-48"/>
    </g>
   </g>
   <g id="text_4">
    <!-- R -->
    <g style="fill: #0e7490" transform="translate(179.665 235.885625) scale(0.11 -0.11)">
     <defs>
      <path id="DejaVuSans-Bold-52" d="M 2297 2597 
Q 2675 2597 2839 2737 
Q 3003 2878 3003 3200 
Q 3003 3519 2839 3656 
Q 2675 3794 2297 3794 
L 1791 3794 
L 1791 2597 
L 2297 2597 
z
M 1791 1766 
L 1791 0 
L 588 0 
L 588 4666 
L 2425 4666 
Q 3347 4666 3776 4356 
Q 4206 4047 4206 3378 
Q 4206 2916 3982 2619 
Q 3759 2322 3309 2181 
Q 3556 2125 3751 1926 
Q 3947 1728 4147 1325 
L 4800 0 
L 3519 0 
L 2950 1159 
Q 2778 1509 2601 1637 
Q 2425 1766 2131 1766 
L 1791 1766 
z
" transform="scale(0.015625)"/>
     </defs>
     <use xlink:href="#DejaVuSans-Bold-52"/>
    </g>
   </g>
   <g id="text_5">
    <!-- F -->
    <g style="fill: #0e7490" transform="translate(212.692813 235.885625) scale(0.11 -0.11)">
     <defs>
      <path id="DejaVuSans-Bold-46" d="M 588 4666 
L 3834 4666 
L 3834 3756 
L 1791 3756 
L 1791 2888 
L 3713 2888 
L 3713 1978 
L 1791 1978 
L 1791 0 
L 588 0 
L 588 4666 
z
" transform="scale(0.015625)"/>
     </defs>
     <use xlink:href="#DejaVuSans-Bold-46"/>
    </g>
   </g>
   <g id="text_6">
    <!-- G -->
    <g style="fill: #0e7490" transform="translate(244.485703 235.885625) scale(0.11 -0.11)">
     <defs>
      <path id="DejaVuSans-Bold-47" d="M 4781 347 
Q 4331 128 3847 18 
Q 3363 -91 2847 -91 
Q 1681 -91 1000 561 
Q 319 1213 319 2328 
Q 319 3456 1012 4103 
Q 1706 4750 2913 4750 
Q 3378 4750 3804 4662 
Q 4231 4575 4609 4403 
L 4609 3438 
Q 4219 3659 3833 3768 
Q 3447 3878 3059 3878 
Q 2341 3878 1952 3476 
Q 1563 3075 1563 2328 
Q 1563 1588 1938 1184 
Q 2313 781 3003 781 
Q 3191 781 3352 804 
Q 3513 828 3641 878 
L 3641 1784 
L 2906 1784 
L 2906 2591 
L 4781 2591 
L 4781 347 
z
" transform="scale(0.015625)"/>
     </defs>
     <use xlink:href="#DejaVuSans-Bold-47"/>
    </g>
   </g>
   <g id="text_7">
    <!-- $\Lambda_{5} = \prod_i x_i^{1/5}$ -->
    <g style="fill: #4b5563" transform="translate(295.5 232.960312) scale(0.11 -0.11)">
     <defs>
      <path id="DejaVuSans-39b" d="M 716 0 
L 50 0 
L 1831 4666 
L 2547 4666 
L 4325 0 
L 3669 0 
L 2188 4044 
L 716 0 
z
" transform="scale(0.015625)"/>
      <path id="DejaVuSans-35" d="M 691 4666 
L 3169 4666 
L 3169 4134 
L 1269 4134 
L 1269 2991 
Q 1406 3038 1543 3061 
Q 1681 3084 1819 3084 
Q 2600 3084 3056 2656 
Q 3513 2228 3513 1497 
Q 3513 744 3044 326 
Q 2575 -91 1722 -91 
Q 1428 -91 1123 -41 
Q 819 9 494 109 
L 494 744 
Q 775 591 1075 516 
Q 1375 441 1709 441 
Q 2250 441 2565 725 
Q 2881 1009 2881 1497 
Q 2881 1984 2565 2268 
Q 2250 2553 1709 2553 
Q 1456 2553 1204 2497 
Q 953 2441 691 2322 
L 691 4666 
z
" transform="scale(0.015625)"/>
      <path id="DejaVuSans-3d" d="M 678 2906 
L 4684 2906 
L 4684 2381 
L 678 2381 
L 678 2906 
z
M 678 1631 
L 4684 1631 
L 4684 1100 
L 678 1100 
L 678 1631 
z
" transform="scale(0.015625)"/>
      <path id="DejaVuSansDisplay-220f" d="M 691 6509 
L 6156 6509 
L 6156 -1738 
L 5097 -1738 
L 5097 5603 
L 1747 5603 
L 1747 -1738 
L 691 -1738 
L 691 6509 
z
" transform="scale(0.015625)"/>
      <path id="DejaVuSans-Oblique-69" d="M 1172 4863 
L 1747 4863 
L 1606 4134 
L 1031 4134 
L 1172 4863 
z
M 909 3500 
L 1484 3500 
L 800 0 
L 225 0 
L 909 3500 
z
" transform="scale(0.015625)"/>
      <path id="DejaVuSans-Oblique-78" d="M 3841 3500 
L 2234 1784 
L 3219 0 
L 2559 0 
L 1819 1388 
L 531 0 
L -166 0 
L 1556 1844 
L 641 3500 
L 1300 3500 
L 1972 2234 
L 3144 3500 
L 3841 3500 
z
" transform="scale(0.015625)"/>
      <path id="DejaVuSans-31" d="M 794 531 
L 1825 531 
L 1825 4091 
L 703 3866 
L 703 4441 
L 1819 4666 
L 2450 4666 
L 2450 531 
L 3481 531 
L 3481 0 
L 794 0 
L 794 531 
z
" transform="scale(0.015625)"/>
      <path id="DejaVuSans-2f" d="M 1625 4666 
L 2156 4666 
L 531 -594 
L 0 -594 
L 1625 4666 
z
" transform="scale(0.015625)"/>
     </defs>
     <use xlink:href="#DejaVuSans-39b" transform="translate(0 0.296875)"/>
     <use xlink:href="#DejaVuSans-35" transform="translate(69.365234 -16.109375) scale(0.7)"/>
     <use xlink:href="#DejaVuSans-3d" transform="translate(136.118164 0.296875)"/>
     <use xlink:href="#DejaVuSansDisplay-220f" transform="translate(239.389648 0.296875)"/>
     <use xlink:href="#DejaVuSans-Oblique-69" transform="translate(273.389648 -98.798438) scale(0.7)"/>
     <use xlink:href="#DejaVuSans-Oblique-78" transform="translate(324.780273 0.296875)"/>
     <use xlink:href="#DejaVuSans-31" transform="translate(388.426107 45.139062) scale(0.7)"/>
     <use xlink:href="#DejaVuSans-2f" transform="translate(432.96224 45.139062) scale(0.7)"/>
     <use xlink:href="#DejaVuSans-35" transform="translate(456.546224 45.139062) scale(0.7)"/>
     <use xlink:href="#DejaVuSans-Oblique-69" transform="translate(383.959961 -27.046875) scale(0.7)"/>
    </g>
   </g>
   <g id="text_8">
    <!-- Λ₇ -->
    <g style="fill: #1e3a8a" transform="translate(49.669375 163.845937) scale(0.22 -0.22)">
     <defs>
      <path id="DejaVuSans-Bold-2087" d="M 263 2585 
L 2422 2585 
L 2422 2207 
L 1306 -24 
L 584 -24 
L 1644 2091 
L 263 2091 
L 263 2585 
z
" transform="scale(0.015625)"/>
     </defs>
     <use xlink:href="#DejaVuSans-Bold-39b"/>
     <use xlink:href="#DejaVuSans-Bold-2087" transform="translate(77.392578 0)"/>
    </g>
   </g>
   <g id="text_9">
    <!-- C -->
    <g style="fill: #1e3a8a" transform="translate(114.763516 160.810625) scale(0.11 -0.11)">
     <use xlink:href="#DejaVuSans-Bold-43"/>
    </g>
   </g>
   <g id="text_10">
    <!-- H -->
    <g style="fill: #1e3a8a" transform="translate(146.747187 160.810625) scale(0.11 -0.11)">
     <use xlink:href="#DejaVuSans-Bold-48"/>
    </g>
   </g>
   <g id="text_11">
    <!-- R -->
    <g style="fill: #1e3a8a" transform="translate(179.665 160.810625) scale(0.11 -0.11)">
     <use xlink:href="#DejaVuSans-Bold-52"/>
    </g>
   </g>
   <g id="text_12">
    <!-- F -->
    <g style="fill: #1e3a8a" transform="translate(212.692813 160.810625) scale(0.11 -0.11)">
     <use xlink:href="#DejaVuSans-Bold-46"/>
    </g>
   </g>
   <g id="text_13">
    <!-- G -->
    <g style="fill: #1e3a8a" transform="translate(244.485703 160.810625) scale(0.11 -0.11)">
     <use xlink:href="#DejaVuSans-Bold-47"/>
    </g>
   </g>
   <g id="text_14">
    <!-- I -->
    <g style="fill: #1e3a8a" transform="translate(279.503828 160.810625) scale(0.11 -0.11)">
     <defs>
      <path id="DejaVuSans-Bold-49" d="M 588 4666 
L 1791 4666 
L 1791 0 
L 588 0 
L 588 4666 
z
" transform="scale(0.015625)"/>
     </defs>
     <use xlink:href="#DejaVuSans-Bold-49"/>
    </g>
   </g>
   <g id="text_15">
    <!-- M -->
    <g style="fill: #1e3a8a" transform="translate(308.626641 160.810625) scale(0.11 -0.11)">
     <defs>
      <path id="DejaVuSans-Bold-4d" d="M 588 4666 
L 2119 4666 
L 3181 2169 
L 4250 4666 
L 5778 4666 
L 5778 0 
L 4641 0 
L 4641 3413 
L 3566 897 
L 2803 897 
L 1728 3413 
L 1728 0 
L 588 0 
L 588 4666 
z
" transform="scale(0.015625)"/>
     </defs>
     <use xlink:href="#DejaVuSans-Bold-4d"/>
    </g>
   </g>
   <g id="text_16">
    <!-- $\Lambda_{7} = \prod_i x_i^{1/7}$ -->
    <g style="fill: #4b5563" transform="translate(360.6 157.885312) scale(0.11 -0.11)">
     <defs>
      <path id="DejaVuSans-37" d="M 525 4666 
L 3525 4666 
L 3525 4397 
L 1831 0 
L 1172 0 
L 2766 4134 
L 525 4134 
L 525 4666 
z
" transform="scale(0.015625)"/>
     </defs>
     <use xlink:href="#DejaVuSans-39b" transform="translate(0 0.296875)"/>
     <use xlink:href="#DejaVuSans-37" transform="translate(69.365234 -16.109375) scale(0.7)"/>
     <use xlink:href="#DejaVuSans-3d" transform="translate(136.118164 0.296875)"/>
     <use xlink:href="#DejaVuSansDisplay-220f" transform="translate(239.389648 0.296875)"/>
     <use xlink:href="#DejaVuSans-Oblique-69" transform="translate(273.389648 -98.798438) scale(0.7)"/>
     <use xlink:href="#DejaVuSans-Oblique-78" transform="translate(324.780273 0.296875)"/>
     <use xlink:href="#DejaVuSans-31" transform="translate(388.426107 45.139062) scale(0.7)"/>
     <use xlink:href="#DejaVuSans-2f" transform="translate(432.96224 45.139062) scale(0.7)"/>
     <use xlink:href="#DejaVuSans-37" transform="translate(446.921224 45.139062) scale(0.7)"/>
     <use xlink:href="#DejaVuSans-Oblique-69" transform="translate(383.959961 -27.046875) scale(0.7)"/>
    </g>
   </g>
   <g id="text_17">
    <!-- Λ₉ -->
    <g style="fill: #6b21a8" transform="translate(49.669375 88.770937) scale(0.22 -0.22)">
     <defs>
      <path id="DejaVuSans-Bold-2089" d="M 394 35 
L 394 519 
Q 569 444 731 406 
Q 894 369 1050 369 
Q 1378 369 1563 535 
Q 1747 704 1781 1032 
Q 1650 944 1503 901 
Q 1353 857 1181 857 
Q 738 857 472 1088 
Q 203 1322 203 1710 
Q 203 2132 503 2385 
Q 803 2638 1309 2638 
Q 1869 2638 2175 2294 
Q 2481 1951 2481 1319 
Q 2481 666 2125 297 
Q 1766 -71 1141 -71 
Q 938 -71 753 -46 
Q 569 -18 394 35 
z
M 1306 1301 
Q 1500 1301 1597 1413 
Q 1694 1529 1694 1757 
Q 1694 1985 1597 2100 
Q 1500 2216 1306 2216 
Q 1109 2216 1012 2100 
Q 916 1985 916 1757 
Q 916 1529 1013 1413 
Q 1109 1301 1306 1301 
z
" transform="scale(0.015625)"/>
     </defs>
     <use xlink:href="#DejaVuSans-Bold-39b"/>
     <use xlink:href="#DejaVuSans-Bold-2089" transform="translate(77.392578 0)"/>
    </g>
   </g>
   <g id="text_18">
    <!-- C -->
    <g style="fill: #6b21a8" transform="translate(114.763516 85.735625) scale(0.11 -0.11)">
     <use xlink:href="#DejaVuSans-Bold-43"/>
    </g>
   </g>
   <g id="text_19">
    <!-- H -->
    <g style="fill: #6b21a8" transform="translate(146.747187 85.735625) scale(0.11 -0.11)">
     <use xlink:href="#DejaVuSans-Bold-48"/>
    </g>
   </g>
   <g id="text_20">
    <!-- R -->
    <g style="fill: #6b21a8" transform="translate(179.665 85.735625) scale(0.11 -0.11)">
     <use xlink:href="#DejaVuSans-Bold-52"/>
    </g>
   </g>
   <g id="text_21">
    <!-- F -->
    <g style="fill: #6b21a8" transform="translate(212.692813 85.735625) scale(0.11 -0.11)">
     <use xlink:href="#DejaVuSans-Bold-46"/>
    </g>
   </g>
   <g id="text_22">
    <!-- G -->
    <g style="fill: #6b21a8" transform="translate(244.485703 85.735625) scale(0.11 -0.11)">
     <use xlink:href="#DejaVuSans-Bold-47"/>
    </g>
   </g>
   <g id="text_23">
    <!-- I -->
    <g style="fill: #6b21a8" transform="translate(279.503828 85.735625) scale(0.11 -0.11)">
     <use xlink:href="#DejaVuSans-Bold-49"/>
    </g>
   </g>
   <g id="text_24">
    <!-- M -->
    <g style="fill: #6b21a8" transform="translate(308.626641 85.735625) scale(0.11 -0.11)">
     <use xlink:href="#DejaVuSans-Bold-4d"/>
    </g>
   </g>
   <g id="text_25">
    <!-- B -->
    <g style="fill: #6b21a8" transform="translate(342.457969 85.735625) scale(0.11 -0.11)">
     <defs>
      <path id="DejaVuSans-Bold-42" d="M 2456 2859 
Q 2741 2859 2887 2984 
Q 3034 3109 3034 3353 
Q 3034 3594 2887 3720 
Q 2741 3847 2456 3847 
L 1791 3847 
L 1791 2859 
L 2456 2859 
z
M 2497 819 
Q 2859 819 3042 972 
Q 3225 1125 3225 1434 
Q 3225 1738 3044 1889 
Q 2863 2041 2497 2041 
L 1791 2041 
L 1791 819 
L 2497 819 
z
M 3616 2497 
Q 4003 2384 4215 2081 
Q 4428 1778 4428 1338 
Q 4428 663 3972 331 
Q 3516 0 2584 0 
L 588 0 
L 588 4666 
L 2394 4666 
Q 3366 4666 3802 4372 
Q 4238 4078 4238 3431 
Q 4238 3091 4078 2852 
Q 3919 2613 3616 2497 
z
" transform="scale(0.015625)"/>
     </defs>
     <use xlink:href="#DejaVuSans-Bold-42"/>
    </g>
   </g>
   <g id="text_26">
    <!-- N -->
    <g style="fill: #6b21a8" transform="translate(374.597187 85.735625) scale(0.11 -0.11)">
     <defs>
      <path id="DejaVuSans-Bold-4e" d="M 588 4666 
L 1931 4666 
L 3628 1466 
L 3628 4666 
L 4769 4666 
L 4769 0 
L 3425 0 
L 1728 3200 
L 1728 0 
L 588 0 
L 588 4666 
z
" transform="scale(0.015625)"/>
     </defs>
     <use xlink:href="#DejaVuSans-Bold-4e"/>
    </g>
   </g>
   <g id="text_27">
    <!-- $\Lambda_{9} = \prod_i x_i^{1/9}$ -->
    <g style="fill: #4b5563" transform="translate(425.7 82.810312) scale(0.11 -0.11)">
     <defs>
      <path id="DejaVuSans-39" d="M 703 97 
L 703 672 
Q 941 559 1184 500 
Q 1428 441 1663 441 
Q 2288 441 2617 861 
Q 2947 1281 2994 2138 
Q 2813 1869 2534 1725 
Q 2256 1581 1919 1581 
Q 1219 1581 811 2004 
Q 403 2428 403 3163 
Q 403 3881 828 4315 
Q 1253 4750 1959 4750 
Q 2769 4750 3195 4129 
Q 3622 3509 3622 2328 
Q 3622 1225 3098 567 
Q 2575 -91 1691 -91 
Q 1453 -91 1209 -44 
Q 966 3 703 97 
z
M 1959 2075 
Q 2384 2075 2632 2365 
Q 2881 2656 2881 3163 
Q 2881 3666 2632 3958 
Q 2384 4250 1959 4250 
Q 1534 4250 1286 3958 
Q 1038 3666 1038 3163 
Q 1038 2656 1286 2365 
Q 1534 2075 1959 2075 
z
" transform="scale(0.015625)"/>
     </defs>
     <use xlink:href="#DejaVuSans-39b" transform="translate(0 0.296875)"/>
     <use xlink:href="#DejaVuSans-39" transform="translate(69.365234 -16.109375) scale(0.7)"/>
     <use xlink:href="#DejaVuSans-3d" transform="translate(136.118164 0.296875)"/>
     <use xlink:href="#DejaVuSansDisplay-220f" transform="translate(239.389648 0.296875)"/>
     <use xlink:href="#DejaVuSans-Oblique-69" transform="translate(273.389648 -98.798438) scale(0.7)"/>
     <use xlink:href="#DejaVuSans-Oblique-78" transform="translate(324.780273 0.296875)"/>
     <use xlink:href="#DejaVuSans-31" transform="translate(388.426107 45.139062) scale(0.7)"/>
     <use xlink:href="#DejaVuSans-2f" transform="translate(432.96224 45.139062) scale(0.7)"/>
     <use xlink:href="#DejaVuSans-39" transform="translate(448.846224 45.139062) scale(0.7)"/>
     <use xlink:href="#DejaVuSans-Oblique-69" transform="translate(383.959961 -27.046875) scale(0.7)"/>
    </g>
   </g>
   <g id="text_28">
    <!-- Axiom A3 — Egyptian-exact weights (every weight = 1/k, auditable) -->
    <g style="fill: #d97706" transform="translate(95.228125 282.925625) scale(0.1 -0.1)">
     <defs>
      <path id="DejaVuSans-Bold-41" d="M 3419 850 
L 1538 850 
L 1241 0 
L 31 0 
L 1759 4666 
L 3194 4666 
L 4922 0 
L 3713 0 
L 3419 850 
z
M 1838 1716 
L 3116 1716 
L 2478 3572 
L 1838 1716 
z
" transform="scale(0.015625)"/>
      <path id="DejaVuSans-Bold-78" d="M 1422 1791 
L 159 3500 
L 1344 3500 
L 2059 2463 
L 2784 3500 
L 3969 3500 
L 2706 1797 
L 4031 0 
L 2847 0 
L 2059 1106 
L 1281 0 
L 97 0 
L 1422 1791 
z
" transform="scale(0.015625)"/>
      <path id="DejaVuSans-Bold-69" d="M 538 3500 
L 1656 3500 
L 1656 0 
L 538 0 
L 538 3500 
z
M 538 4863 
L 1656 4863 
L 1656 3950 
L 538 3950 
L 538 4863 
z
" transform="scale(0.015625)"/>
      <path id="DejaVuSans-Bold-6f" d="M 2203 2784 
Q 1831 2784 1636 2517 
Q 1441 2250 1441 1747 
Q 1441 1244 1636 976 
Q 1831 709 2203 709 
Q 2569 709 2762 976 
Q 2956 1244 2956 1747 
Q 2956 2250 2762 2517 
Q 2569 2784 2203 2784 
z
M 2203 3584 
Q 3106 3584 3614 3096 
Q 4122 2609 4122 1747 
Q 4122 884 3614 396 
Q 3106 -91 2203 -91 
Q 1297 -91 786 396 
Q 275 884 275 1747 
Q 275 2609 786 3096 
Q 1297 3584 2203 3584 
z
" transform="scale(0.015625)"/>
      <path id="DejaVuSans-Bold-6d" d="M 3781 2919 
Q 3994 3244 4286 3414 
Q 4578 3584 4928 3584 
Q 5531 3584 5847 3212 
Q 6163 2841 6163 2131 
L 6163 0 
L 5038 0 
L 5038 1825 
Q 5041 1866 5042 1909 
Q 5044 1953 5044 2034 
Q 5044 2406 4934 2573 
Q 4825 2741 4581 2741 
Q 4263 2741 4089 2478 
Q 3916 2216 3909 1719 
L 3909 0 
L 2784 0 
L 2784 1825 
Q 2784 2406 2684 2573 
Q 2584 2741 2328 2741 
Q 2006 2741 1831 2477 
Q 1656 2213 1656 1722 
L 1656 0 
L 531 0 
L 531 3500 
L 1656 3500 
L 1656 2988 
Q 1863 3284 2130 3434 
Q 2397 3584 2719 3584 
Q 3081 3584 3359 3409 
Q 3638 3234 3781 2919 
z
" transform="scale(0.015625)"/>
      <path id="DejaVuSans-Bold-20" transform="scale(0.015625)"/>
      <path id="DejaVuSans-Bold-33" d="M 2981 2516 
Q 3453 2394 3698 2092 
Q 3944 1791 3944 1325 
Q 3944 631 3412 270 
Q 2881 -91 1863 -91 
Q 1503 -91 1142 -33 
Q 781 25 428 141 
L 428 1069 
Q 766 900 1098 814 
Q 1431 728 1753 728 
Q 2231 728 2486 893 
Q 2741 1059 2741 1369 
Q 2741 1688 2480 1852 
Q 2219 2016 1709 2016 
L 1228 2016 
L 1228 2791 
L 1734 2791 
Q 2188 2791 2409 2933 
Q 2631 3075 2631 3366 
Q 2631 3634 2415 3781 
Q 2200 3928 1806 3928 
Q 1516 3928 1219 3862 
Q 922 3797 628 3669 
L 628 4550 
Q 984 4650 1334 4700 
Q 1684 4750 2022 4750 
Q 2931 4750 3382 4451 
Q 3834 4153 3834 3553 
Q 3834 3144 3618 2883 
Q 3403 2622 2981 2516 
z
" transform="scale(0.015625)"/>
      <path id="DejaVuSans-Bold-2014" d="M 344 2156 
L 6056 2156 
L 6056 1350 
L 344 1350 
L 344 2156 
z
" transform="scale(0.015625)"/>
      <path id="DejaVuSans-Bold-45" d="M 588 4666 
L 3834 4666 
L 3834 3756 
L 1791 3756 
L 1791 2888 
L 3713 2888 
L 3713 1978 
L 1791 1978 
L 1791 909 
L 3903 909 
L 3903 0 
L 588 0 
L 588 4666 
z
" transform="scale(0.015625)"/>
      <path id="DejaVuSans-Bold-67" d="M 2919 594 
Q 2688 288 2409 144 
Q 2131 0 1766 0 
Q 1125 0 706 504 
Q 288 1009 288 1791 
Q 288 2575 706 3076 
Q 1125 3578 1766 3578 
Q 2131 3578 2409 3434 
Q 2688 3291 2919 2981 
L 2919 3500 
L 4044 3500 
L 4044 353 
Q 4044 -491 3511 -936 
Q 2978 -1381 1966 -1381 
Q 1638 -1381 1331 -1331 
Q 1025 -1281 716 -1178 
L 716 -306 
Q 1009 -475 1290 -558 
Q 1572 -641 1856 -641 
Q 2406 -641 2662 -400 
Q 2919 -159 2919 353 
L 2919 594 
z
M 2181 2772 
Q 1834 2772 1640 2515 
Q 1447 2259 1447 1791 
Q 1447 1309 1634 1061 
Q 1822 813 2181 813 
Q 2531 813 2725 1069 
Q 2919 1325 2919 1791 
Q 2919 2259 2725 2515 
Q 2531 2772 2181 2772 
z
" transform="scale(0.015625)"/>
      <path id="DejaVuSans-Bold-79" d="M 78 3500 
L 1197 3500 
L 2138 1125 
L 2938 3500 
L 4056 3500 
L 2584 -331 
Q 2363 -916 2067 -1148 
Q 1772 -1381 1288 -1381 
L 641 -1381 
L 641 -647 
L 991 -647 
Q 1275 -647 1404 -556 
Q 1534 -466 1606 -231 
L 1638 -134 
L 78 3500 
z
" transform="scale(0.015625)"/>
      <path id="DejaVuSans-Bold-70" d="M 1656 506 
L 1656 -1331 
L 538 -1331 
L 538 3500 
L 1656 3500 
L 1656 2988 
Q 1888 3294 2169 3439 
Q 2450 3584 2816 3584 
Q 3463 3584 3878 3070 
Q 4294 2556 4294 1747 
Q 4294 938 3878 423 
Q 3463 -91 2816 -91 
Q 2450 -91 2169 54 
Q 1888 200 1656 506 
z
M 2400 2772 
Q 2041 2772 1848 2508 
Q 1656 2244 1656 1747 
Q 1656 1250 1848 986 
Q 2041 722 2400 722 
Q 2759 722 2948 984 
Q 3138 1247 3138 1747 
Q 3138 2247 2948 2509 
Q 2759 2772 2400 2772 
z
" transform="scale(0.015625)"/>
      <path id="DejaVuSans-Bold-74" d="M 1759 4494 
L 1759 3500 
L 2913 3500 
L 2913 2700 
L 1759 2700 
L 1759 1216 
Q 1759 972 1856 886 
Q 1953 800 2241 800 
L 2816 800 
L 2816 0 
L 1856 0 
Q 1194 0 917 276 
Q 641 553 641 1216 
L 641 2700 
L 84 2700 
L 84 3500 
L 641 3500 
L 641 4494 
L 1759 4494 
z
" transform="scale(0.015625)"/>
      <path id="DejaVuSans-Bold-61" d="M 2106 1575 
Q 1756 1575 1579 1456 
Q 1403 1338 1403 1106 
Q 1403 894 1545 773 
Q 1688 653 1941 653 
Q 2256 653 2472 879 
Q 2688 1106 2688 1447 
L 2688 1575 
L 2106 1575 
z
M 3816 1997 
L 3816 0 
L 2688 0 
L 2688 519 
Q 2463 200 2181 54 
Q 1900 -91 1497 -91 
Q 953 -91 614 226 
Q 275 544 275 1050 
Q 275 1666 698 1953 
Q 1122 2241 2028 2241 
L 2688 2241 
L 2688 2328 
Q 2688 2594 2478 2717 
Q 2269 2841 1825 2841 
Q 1466 2841 1156 2769 
Q 847 2697 581 2553 
L 581 3406 
Q 941 3494 1303 3539 
Q 1666 3584 2028 3584 
Q 2975 3584 3395 3211 
Q 3816 2838 3816 1997 
z
" transform="scale(0.015625)"/>
      <path id="DejaVuSans-Bold-6e" d="M 4056 2131 
L 4056 0 
L 2931 0 
L 2931 347 
L 2931 1631 
Q 2931 2084 2911 2256 
Q 2891 2428 2841 2509 
Q 2775 2619 2662 2680 
Q 2550 2741 2406 2741 
Q 2056 2741 1856 2470 
Q 1656 2200 1656 1722 
L 1656 0 
L 538 0 
L 538 3500 
L 1656 3500 
L 1656 2988 
Q 1909 3294 2193 3439 
Q 2478 3584 2822 3584 
Q 3428 3584 3742 3212 
Q 4056 2841 4056 2131 
z
" transform="scale(0.015625)"/>
      <path id="DejaVuSans-Bold-2d" d="M 347 2297 
L 2309 2297 
L 2309 1388 
L 347 1388 
L 347 2297 
z
" transform="scale(0.015625)"/>
      <path id="DejaVuSans-Bold-65" d="M 4031 1759 
L 4031 1441 
L 1416 1441 
Q 1456 1047 1700 850 
Q 1944 653 2381 653 
Q 2734 653 3104 758 
Q 3475 863 3866 1075 
L 3866 213 
Q 3469 63 3072 -14 
Q 2675 -91 2278 -91 
Q 1328 -91 801 392 
Q 275 875 275 1747 
Q 275 2603 792 3093 
Q 1309 3584 2216 3584 
Q 3041 3584 3536 3087 
Q 4031 2591 4031 1759 
z
M 2881 2131 
Q 2881 2450 2695 2645 
Q 2509 2841 2209 2841 
Q 1884 2841 1681 2658 
Q 1478 2475 1428 2131 
L 2881 2131 
z
" transform="scale(0.015625)"/>
      <path id="DejaVuSans-Bold-63" d="M 3366 3391 
L 3366 2478 
Q 3138 2634 2908 2709 
Q 2678 2784 2431 2784 
Q 1963 2784 1702 2511 
Q 1441 2238 1441 1747 
Q 1441 1256 1702 982 
Q 1963 709 2431 709 
Q 2694 709 2930 787 
Q 3166 866 3366 1019 
L 3366 103 
Q 3103 6 2833 -42 
Q 2563 -91 2291 -91 
Q 1344 -91 809 395 
Q 275 881 275 1747 
Q 275 2613 809 3098 
Q 1344 3584 2291 3584 
Q 2566 3584 2833 3536 
Q 3100 3488 3366 3391 
z
" transform="scale(0.015625)"/>
      <path id="DejaVuSans-Bold-77" d="M 225 3500 
L 1313 3500 
L 1900 1088 
L 2491 3500 
L 3425 3500 
L 4013 1113 
L 4603 3500 
L 5691 3500 
L 4769 0 
L 3547 0 
L 2956 2406 
L 2369 0 
L 1147 0 
L 225 3500 
z
" transform="scale(0.015625)"/>
      <path id="DejaVuSans-Bold-68" d="M 4056 2131 
L 4056 0 
L 2931 0 
L 2931 347 
L 2931 1625 
Q 2931 2084 2911 2256 
Q 2891 2428 2841 2509 
Q 2775 2619 2662 2680 
Q 2550 2741 2406 2741 
Q 2056 2741 1856 2470 
Q 1656 2200 1656 1722 
L 1656 0 
L 538 0 
L 538 4863 
L 1656 4863 
L 1656 2988 
Q 1909 3294 2193 3439 
Q 2478 3584 2822 3584 
Q 3428 3584 3742 3212 
Q 4056 2841 4056 2131 
z
" transform="scale(0.015625)"/>
      <path id="DejaVuSans-Bold-73" d="M 3272 3391 
L 3272 2541 
Q 2913 2691 2578 2766 
Q 2244 2841 1947 2841 
Q 1628 2841 1473 2761 
Q 1319 2681 1319 2516 
Q 1319 2381 1436 2309 
Q 1553 2238 1856 2203 
L 2053 2175 
Q 2913 2066 3209 1816 
Q 3506 1566 3506 1031 
Q 3506 472 3093 190 
Q 2681 -91 1863 -91 
Q 1516 -91 1145 -36 
Q 775 19 384 128 
L 384 978 
Q 719 816 1070 734 
Q 1422 653 1784 653 
Q 2113 653 2278 743 
Q 2444 834 2444 1013 
Q 2444 1163 2330 1236 
Q 2216 1309 1875 1350 
L 1678 1375 
Q 931 1469 631 1722 
Q 331 1975 331 2491 
Q 331 3047 712 3315 
Q 1094 3584 1881 3584 
Q 2191 3584 2531 3537 
Q 2872 3491 3272 3391 
z
" transform="scale(0.015625)"/>
      <path id="DejaVuSans-Bold-28" d="M 2413 -844 
L 1484 -844 
Q 1006 -72 778 623 
Q 550 1319 550 2003 
Q 550 2688 779 3389 
Q 1009 4091 1484 4856 
L 2413 4856 
Q 2013 4116 1813 3408 
Q 1613 2700 1613 2009 
Q 1613 1319 1811 609 
Q 2009 -100 2413 -844 
z
" transform="scale(0.015625)"/>
      <path id="DejaVuSans-Bold-76" d="M 97 3500 
L 1216 3500 
L 2088 1081 
L 2956 3500 
L 4078 3500 
L 2700 0 
L 1472 0 
L 97 3500 
z
" transform="scale(0.015625)"/>
      <path id="DejaVuSans-Bold-72" d="M 3138 2547 
Q 2991 2616 2845 2648 
Q 2700 2681 2553 2681 
Q 2122 2681 1889 2404 
Q 1656 2128 1656 1613 
L 1656 0 
L 538 0 
L 538 3500 
L 1656 3500 
L 1656 2925 
Q 1872 3269 2151 3426 
Q 2431 3584 2822 3584 
Q 2878 3584 2943 3579 
Q 3009 3575 3134 3559 
L 3138 2547 
z
" transform="scale(0.015625)"/>
      <path id="DejaVuSans-Bold-3d" d="M 678 3084 
L 4684 3084 
L 4684 2350 
L 678 2350 
L 678 3084 
z
M 678 1663 
L 4684 1663 
L 4684 922 
L 678 922 
L 678 1663 
z
" transform="scale(0.015625)"/>
      <path id="DejaVuSans-Bold-31" d="M 750 831 
L 1813 831 
L 1813 3847 
L 722 3622 
L 722 4441 
L 1806 4666 
L 2950 4666 
L 2950 831 
L 4013 831 
L 4013 0 
L 750 0 
L 750 831 
z
" transform="scale(0.015625)"/>
      <path id="DejaVuSans-Bold-2f" d="M 1644 4666 
L 2338 4666 
L 691 -594 
L 0 -594 
L 1644 4666 
z
" transform="scale(0.015625)"/>
      <path id="DejaVuSans-Bold-6b" d="M 538 4863 
L 1656 4863 
L 1656 2216 
L 2944 3500 
L 4244 3500 
L 2534 1894 
L 4378 0 
L 3022 0 
L 1656 1459 
L 1656 0 
L 538 0 
L 538 4863 
z
" transform="scale(0.015625)"/>
      <path id="DejaVuSans-Bold-2c" d="M 653 1209 
L 1778 1209 
L 1778 256 
L 1006 -909 
L 341 -909 
L 653 256 
L 653 1209 
z
" transform="scale(0.015625)"/>
      <path id="DejaVuSans-Bold-75" d="M 500 1363 
L 500 3500 
L 1625 3500 
L 1625 3150 
Q 1625 2866 1622 2436 
Q 1619 2006 1619 1863 
Q 1619 1441 1641 1255 
Q 1663 1069 1716 984 
Q 1784 875 1895 815 
Q 2006 756 2150 756 
Q 2500 756 2700 1025 
Q 2900 1294 2900 1772 
L 2900 3500 
L 4019 3500 
L 4019 0 
L 2900 0 
L 2900 506 
Q 2647 200 2364 54 
Q 2081 -91 1741 -91 
Q 1134 -91 817 281 
Q 500 653 500 1363 
z
" transform="scale(0.015625)"/>
      <path id="DejaVuSans-Bold-64" d="M 2919 2988 
L 2919 4863 
L 4044 4863 
L 4044 0 
L 2919 0 
L 2919 506 
Q 2688 197 2409 53 
Q 2131 -91 1766 -91 
Q 1119 -91 703 423 
Q 288 938 288 1747 
Q 288 2556 703 3070 
Q 1119 3584 1766 3584 
Q 2128 3584 2408 3439 
Q 2688 3294 2919 2988 
z
M 2181 722 
Q 2541 722 2730 984 
Q 2919 1247 2919 1747 
Q 2919 2247 2730 2509 
Q 2541 2772 2181 2772 
Q 1825 2772 1636 2509 
Q 1447 2247 1447 1747 
Q 1447 1247 1636 984 
Q 1825 722 2181 722 
z
" transform="scale(0.015625)"/>
      <path id="DejaVuSans-Bold-62" d="M 2400 722 
Q 2759 722 2948 984 
Q 3138 1247 3138 1747 
Q 3138 2247 2948 2509 
Q 2759 2772 2400 2772 
Q 2041 2772 1848 2508 
Q 1656 2244 1656 1747 
Q 1656 1250 1848 986 
Q 2041 722 2400 722 
z
M 1656 2988 
Q 1888 3294 2169 3439 
Q 2450 3584 2816 3584 
Q 3463 3584 3878 3070 
Q 4294 2556 4294 1747 
Q 4294 938 3878 423 
Q 3463 -91 2816 -91 
Q 2450 -91 2169 54 
Q 1888 200 1656 506 
L 1656 0 
L 538 0 
L 538 4863 
L 1656 4863 
L 1656 2988 
z
" transform="scale(0.015625)"/>
      <path id="DejaVuSans-Bold-6c" d="M 538 4863 
L 1656 4863 
L 1656 0 
L 538 0 
L 538 4863 
z
" transform="scale(0.015625)"/>
      <path id="DejaVuSans-Bold-29" d="M 513 -844 
Q 913 -100 1113 609 
Q 1313 1319 1313 2009 
Q 1313 2700 1113 3408 
Q 913 4116 513 4856 
L 1441 4856 
Q 1916 4091 2145 3389 
Q 2375 2688 2375 2003 
Q 2375 1319 2147 623 
Q 1919 -72 1441 -844 
L 513 -844 
z
" transform="scale(0.015625)"/>
     </defs>
     <use xlink:href="#DejaVuSans-Bold-41"/>
     <use xlink:href="#DejaVuSans-Bold-78" transform="translate(77.392578 0)"/>
     <use xlink:href="#DejaVuSans-Bold-69" transform="translate(141.894531 0)"/>
     <use xlink:href="#DejaVuSans-Bold-6f" transform="translate(176.171875 0)"/>
     <use xlink:href="#DejaVuSans-Bold-6d" transform="translate(244.873047 0)"/>
     <use xlink:href="#DejaVuSans-Bold-20" transform="translate(349.072266 0)"/>
     <use xlink:href="#DejaVuSans-Bold-41" transform="translate(383.886719 0)"/>
     <use xlink:href="#DejaVuSans-Bold-33" transform="translate(461.279297 0)"/>
     <use xlink:href="#DejaVuSans-Bold-20" transform="translate(530.859375 0)"/>
     <use xlink:href="#DejaVuSans-Bold-2014" transform="translate(565.673828 0)"/>
     <use xlink:href="#DejaVuSans-Bold-20" transform="translate(665.673828 0)"/>
     <use xlink:href="#DejaVuSans-Bold-45" transform="translate(700.488281 0)"/>
     <use xlink:href="#DejaVuSans-Bold-67" transform="translate(768.798828 0)"/>
     <use xlink:href="#DejaVuSans-Bold-79" transform="translate(840.380859 0)"/>
     <use xlink:href="#DejaVuSans-Bold-70" transform="translate(905.566406 0)"/>
     <use xlink:href="#DejaVuSans-Bold-74" transform="translate(977.148438 0)"/>
     <use xlink:href="#DejaVuSans-Bold-69" transform="translate(1024.951172 0)"/>
     <use xlink:href="#DejaVuSans-Bold-61" transform="translate(1059.228516 0)"/>
     <use xlink:href="#DejaVuSans-Bold-6e" transform="translate(1126.708984 0)"/>
     <use xlink:href="#DejaVuSans-Bold-2d" transform="translate(1197.900391 0)"/>
     <use xlink:href="#DejaVuSans-Bold-65" transform="translate(1239.404297 0)"/>
     <use xlink:href="#DejaVuSans-Bold-78" transform="translate(1307.226562 0)"/>
     <use xlink:href="#DejaVuSans-Bold-61" transform="translate(1371.728516 0)"/>
     <use xlink:href="#DejaVuSans-Bold-63" transform="translate(1439.208984 0)"/>
     <use xlink:href="#DejaVuSans-Bold-74" transform="translate(1498.486328 0)"/>
     <use xlink:href="#DejaVuSans-Bold-20" transform="translate(1546.289062 0)"/>
     <use xlink:href="#DejaVuSans-Bold-77" transform="translate(1581.103516 0)"/>
     <use xlink:href="#DejaVuSans-Bold-65" transform="translate(1673.486328 0)"/>
     <use xlink:href="#DejaVuSans-Bold-69" transform="translate(1741.308594 0)"/>
     <use xlink:href="#DejaVuSans-Bold-67" transform="translate(1775.585938 0)"/>
     <use xlink:href="#DejaVuSans-Bold-68" transform="translate(1847.167969 0)"/>
     <use xlink:href="#DejaVuSans-Bold-74" transform="translate(1918.359375 0)"/>
     <use xlink:href="#DejaVuSans-Bold-73" transform="translate(1966.162109 0)"/>
     <use xlink:href="#DejaVuSans-Bold-20" transform="translate(2025.683594 0)"/>
     <use xlink:href="#DejaVuSans-Bold-28" transform="translate(2060.498047 0)"/>
     <use xlink:href="#DejaVuSans-Bold-65" transform="translate(2106.201172 0)"/>
     <use xlink:href="#DejaVuSans-Bold-76" transform="translate(2174.023438 0)"/>
     <use xlink:href="#DejaVuSans-Bold-65" transform="translate(2239.208984 0)"/>
     <use xlink:href="#DejaVuSans-Bold-72" transform="translate(2307.03125 0)"/>
     <use xlink:href="#DejaVuSans-Bold-79" transform="translate(2356.347656 0)"/>
     <use xlink:href="#DejaVuSans-Bold-20" transform="translate(2421.533203 0)"/>
     <use xlink:href="#DejaVuSans-Bold-77" transform="translate(2456.347656 0)"/>
     <use xlink:href="#DejaVuSans-Bold-65" transform="translate(2548.730469 0)"/>
     <use xlink:href="#DejaVuSans-Bold-69" transform="translate(2616.552734 0)"/>
     <use xlink:href="#DejaVuSans-Bold-67" transform="translate(2650.830078 0)"/>
     <use xlink:href="#DejaVuSans-Bold-68" transform="translate(2722.412109 0)"/>
     <use xlink:href="#DejaVuSans-Bold-74" transform="translate(2793.603516 0)"/>
     <use xlink:href="#DejaVuSans-Bold-20" transform="translate(2841.40625 0)"/>
     <use xlink:href="#DejaVuSans-Bold-3d" transform="translate(2876.220703 0)"/>
     <use xlink:href="#DejaVuSans-Bold-20" transform="translate(2960.009766 0)"/>
     <use xlink:href="#DejaVuSans-Bold-31" transform="translate(2994.824219 0)"/>
     <use xlink:href="#DejaVuSans-Bold-2f" transform="translate(3064.404297 0)"/>
     <use xlink:href="#DejaVuSans-Bold-6b" transform="translate(3100.927734 0)"/>
     <use xlink:href="#DejaVuSans-Bold-2c" transform="translate(3167.431641 0)"/>
     <use xlink:href="#DejaVuSans-Bold-20" transform="translate(3205.419922 0)"/>
     <use xlink:href="#DejaVuSans-Bold-61" transform="translate(3240.234375 0)"/>
     <use xlink:href="#DejaVuSans-Bold-75" transform="translate(3307.714844 0)"/>
     <use xlink:href="#DejaVuSans-Bold-64" transform="translate(3378.90625 0)"/>
     <use xlink:href="#DejaVuSans-Bold-69" transform="translate(3450.488281 0)"/>
     <use xlink:href="#DejaVuSans-Bold-74" transform="translate(3484.765625 0)"/>
     <use xlink:href="#DejaVuSans-Bold-61" transform="translate(3532.568359 0)"/>
     <use xlink:href="#DejaVuSans-Bold-62" transform="translate(3600.048828 0)"/>
     <use xlink:href="#DejaVuSans-Bold-6c" transform="translate(3671.630859 0)"/>
     <use xlink:href="#DejaVuSans-Bold-65" transform="translate(3705.908203 0)"/>
     <use xlink:href="#DejaVuSans-Bold-29" transform="translate(3773.730469 0)"/>
    </g>
   </g>
   <g id="text_29">
    <!-- Figure 1 — The Λ-Invariant Ladder -->
    <g transform="translate(150.757656 17.837812) scale(0.14 -0.14)">
     <defs>
      <path id="DejaVuSans-Bold-54" d="M 31 4666 
L 4331 4666 
L 4331 3756 
L 2784 3756 
L 2784 0 
L 1581 0 
L 1581 3756 
L 31 3756 
L 31 4666 
z
" transform="scale(0.015625)"/>
      <path id="DejaVuSans-Bold-4c" d="M 588 4666 
L 1791 4666 
L 1791 909 
L 3903 909 
L 3903 0 
L 588 0 
L 588 4666 
z
" transform="scale(0.015625)"/>
     </defs>
     <use xlink:href="#DejaVuSans-Bold-46"/>
     <use xlink:href="#DejaVuSans-Bold-69" transform="translate(68.310547 0)"/>
     <use xlink:href="#DejaVuSans-Bold-67" transform="translate(102.587891 0)"/>
     <use xlink:href="#DejaVuSans-Bold-75" transform="translate(174.169922 0)"/>
     <use xlink:href="#DejaVuSans-Bold-72" transform="translate(245.361328 0)"/>
     <use xlink:href="#DejaVuSans-Bold-65" transform="translate(294.677734 0)"/>
     <use xlink:href="#DejaVuSans-Bold-20" transform="translate(362.5 0)"/>
     <use xlink:href="#DejaVuSans-Bold-31" transform="translate(397.314453 0)"/>
     <use xlink:href="#DejaVuSans-Bold-20" transform="translate(466.894531 0)"/>
     <use xlink:href="#DejaVuSans-Bold-2014" transform="translate(501.708984 0)"/>
     <use xlink:href="#DejaVuSans-Bold-20" transform="translate(601.708984 0)"/>
     <use xlink:href="#DejaVuSans-Bold-54" transform="translate(636.523438 0)"/>
     <use xlink:href="#DejaVuSans-Bold-68" transform="translate(704.736328 0)"/>
     <use xlink:href="#DejaVuSans-Bold-65" transform="translate(775.927734 0)"/>
     <use xlink:href="#DejaVuSans-Bold-20" transform="translate(843.75 0)"/>
     <use xlink:href="#DejaVuSans-Bold-39b" transform="translate(878.564453 0)"/>
     <use xlink:href="#DejaVuSans-Bold-2d" transform="translate(955.957031 0)"/>
     <use xlink:href="#DejaVuSans-Bold-49" transform="translate(997.460938 0)"/>
     <use xlink:href="#DejaVuSans-Bold-6e" transform="translate(1034.667969 0)"/>
     <use xlink:href="#DejaVuSans-Bold-76" transform="translate(1105.859375 0)"/>
     <use xlink:href="#DejaVuSans-Bold-61" transform="translate(1171.044922 0)"/>
     <use xlink:href="#DejaVuSans-Bold-72" transform="translate(1238.525391 0)"/>
     <use xlink:href="#DejaVuSans-Bold-69" transform="translate(1287.841797 0)"/>
     <use xlink:href="#DejaVuSans-Bold-61" transform="translate(1322.119141 0)"/>
     <use xlink:href="#DejaVuSans-Bold-6e" transform="translate(1389.599609 0)"/>
     <use xlink:href="#DejaVuSans-Bold-74" transform="translate(1460.791016 0)"/>
     <use xlink:href="#DejaVuSans-Bold-20" transform="translate(1508.59375 0)"/>
     <use xlink:href="#DejaVuSans-Bold-4c" transform="translate(1543.408203 0)"/>
     <use xlink:href="#DejaVuSans-Bold-61" transform="translate(1607.128906 0)"/>
     <use xlink:href="#DejaVuSans-Bold-64" transform="translate(1674.609375 0)"/>
     <use xlink:href="#DejaVuSans-Bold-64" transform="translate(1746.191406 0)"/>
     <use xlink:href="#DejaVuSans-Bold-65" transform="translate(1817.773438 0)"/>
     <use xlink:href="#DejaVuSans-Bold-72" transform="translate(1885.595703 0)"/>
    </g>
   </g>
  </g>
 </g>
 <defs>
  <clipPath id="pda3fac71d1">
   <rect x="7.2" y="27.837812" width="558" height="277.2"/>
  </clipPath>
 </defs>
</svg>
